<svg width="424" height="152" viewBox="0 0 424 152" fill="none" xmlns="http://www.w3.org/2000/svg">
<path d="M120.13 31.3413H182.753V49.3633H140.858V75.2993H178.67V91.9443H140.858V127.931H120.13V31.3413ZM196.021 127.931H216.372V57.707H196.021V127.931ZM195.833 49.2227H216.561V31.4468H195.833V49.2227ZM286.517 60.0625C282.894 57.9062 278.634 56.8276 273.735 56.8276C267.662 56.8276 262.774 58.4824 259.068 61.79C255.99 64.5374 253.579 68.1355 251.816 72.558L251.499 57.707H232.342V127.931H252.693V87.5425C252.693 84.6123 253.236 82.1201 254.325 80.0679C255.414 78.0171 256.922 76.4468 258.848 75.3574C260.774 74.2686 262.994 73.7241 265.506 73.7241C269.275 73.7241 272.227 74.897 274.363 77.2417C276.498 79.5874 277.566 82.8535 277.566 87.04V127.931H297.917V83.2715C297.917 77.8696 296.922 73.1904 294.933 69.2329C292.944 65.2759 290.138 62.2197 286.517 60.0625ZM346.454 112.636C345.135 112.824 344.099 112.918 343.345 112.918C341.209 112.918 339.67 112.427 338.728 111.442C337.786 110.459 337.315 108.941 337.315 106.889V73.0332H350.254V57.707H337.315V40.999H316.964V57.707H307.479V73.0332H316.964V108.71C316.964 115.285 318.858 120.299 322.648 123.754C326.438 127.208 331.955 128.936 339.199 128.936C341.167 128.936 343.24 128.81 345.417 128.559C347.595 128.308 349.835 127.847 352.139 127.177L349.375 112.102C348.747 112.27 347.773 112.448 346.454 112.636ZM423.131 80.4448V127.931H403.911V118.132H403.283C402.11 120.436 400.571 122.414 398.666 124.068C396.76 125.723 394.499 127 391.882 127.899C389.265 128.799 386.261 129.25 382.869 129.25C378.388 129.25 374.389 128.475 370.872 126.926C367.354 125.377 364.6 123.053 362.612 119.954C360.623 116.855 359.628 113.003 359.628 108.396C359.628 104.46 360.329 101.173 361.732 98.5347C363.135 95.8965 365.062 93.7515 367.511 92.0967C369.961 90.4429 372.766 89.1865 375.928 88.3276C379.089 87.4702 382.429 86.894 385.946 86.6006C389.966 86.2236 393.201 85.8467 395.651 85.4697C398.101 85.0933 399.9 84.5181 401.053 83.7427C402.204 82.9683 402.78 81.8486 402.78 80.3823V80.0679C402.78 78.2681 402.381 76.7393 401.586 75.4829C400.791 74.2266 399.629 73.2637 398.101 72.5933C396.571 71.9243 394.698 71.5884 392.479 71.5884C390.259 71.5884 388.312 71.9243 386.637 72.5933C384.962 73.2637 383.591 74.1636 382.523 75.2944C381.456 76.4248 380.691 77.7441 380.23 79.2515L361.638 76.5508C362.685 72.4893 364.59 68.9927 367.354 66.061C370.118 63.1304 373.635 60.8584 377.907 59.2461C382.178 57.6343 387.077 56.8276 392.604 56.8276C396.666 56.8276 400.54 57.3096 404.225 58.2725C407.909 59.2363 411.166 60.6904 413.992 62.6377C416.818 64.585 419.048 67.0347 420.682 69.9868C422.314 72.939 423.131 76.4248 423.131 80.4448ZM402.906 95.708C402.319 96.085 401.513 96.4307 400.487 96.7446C399.461 97.0586 398.32 97.3413 397.064 97.5928C395.808 97.8438 394.562 98.0635 393.327 98.252C392.091 98.4404 390.95 98.6191 389.904 98.7861C387.684 99.0796 385.758 99.5928 384.125 100.325C382.492 101.058 381.236 102.021 380.356 103.214C379.477 104.408 379.037 105.863 379.037 107.58C379.037 109.255 379.466 110.679 380.325 111.851C381.183 113.023 382.345 113.903 383.811 114.489C385.276 115.076 386.952 115.368 388.836 115.368C391.557 115.368 393.976 114.825 396.091 113.735C398.205 112.647 399.869 111.16 401.084 109.275C402.298 107.391 402.906 105.255 402.906 102.869V95.708Z" fill="white"/>
<path d="M0.230957 91.0112L52.231 60.989L76.231 74.8454L24.231 104.868V151.055L0.230957 137.199V91.0112ZM0.230957 58.6796L24.231 72.536V44.8232L76.231 14.801L52.231 0.94458L0.230957 30.9668V58.6796Z" fill="#2870E9"/>
</svg>
