<svg width="500" height="250" viewBox="0 0 500 250" fill="none" xmlns="http://www.w3.org/2000/svg">
<path d="M119.83 51.175C130.797 51.175 141.063 53.5083 150.63 58.175L142.93 75.85C136.047 73.05 129.397 71.65 122.98 71.65C117.613 71.65 113.88 72.5833 111.78 74.45C109.797 76.3167 108.805 79.525 108.805 84.075V91.075H160.43V184H132.78V110.325H108.805V184H81.1551V110.325H66.9801V91.075H81.1551V83.025C81.1551 73.4583 84.3051 65.7583 90.6051 59.925C96.9051 54.0917 106.647 51.175 119.83 51.175ZM236.491 88.1C244.541 88.1 250.841 90.55 255.391 95.45C259.941 100.35 262.216 107.233 262.216 116.1V184H234.566V120.825C234.566 116.158 233.807 112.95 232.291 111.2C230.891 109.333 228.732 108.4 225.816 108.4C220.216 108.4 214.849 112.425 209.716 120.475V184H182.066V91.075H206.216L208.141 102.1C212.107 97.4333 216.366 93.9333 220.916 91.6C225.582 89.2667 230.774 88.1 236.491 88.1ZM341.342 179.625C337.958 181.958 333.992 183.767 329.442 185.05C325.008 186.333 320.575 186.975 316.142 186.975C295.842 186.858 285.692 175.658 285.692 153.375V110.325H272.567V91.075H285.692V70.95L313.342 67.8V91.075H334.692L331.717 110.325H313.342V153.025C313.342 157.342 314.042 160.433 315.442 162.3C316.842 164.167 319.058 165.1 322.092 165.1C325.242 165.1 328.567 164.108 332.067 162.125L341.342 179.625ZM422.371 157.05C422.371 160.55 422.838 163.117 423.771 164.75C424.821 166.383 426.454 167.608 428.671 168.425L422.896 186.45C417.179 185.983 412.513 184.758 408.896 182.775C405.279 180.675 402.479 177.408 400.496 172.975C394.429 182.308 385.096 186.975 372.496 186.975C363.279 186.975 355.929 184.292 350.446 178.925C344.963 173.558 342.221 166.558 342.221 157.925C342.221 147.775 345.954 140.017 353.421 134.65C360.888 129.283 371.679 126.6 385.796 126.6H395.246V122.575C395.246 117.092 394.079 113.358 391.746 111.375C389.413 109.275 385.329 108.225 379.496 108.225C376.463 108.225 372.788 108.692 368.471 109.625C364.154 110.442 359.721 111.608 355.171 113.125L348.871 94.925C354.704 92.7083 360.654 91.0167 366.721 89.85C372.904 88.6833 378.621 88.1 383.871 88.1C397.171 88.1 406.913 90.8417 413.096 96.325C419.279 101.808 422.371 110.033 422.371 121V157.05ZM380.546 167.2C386.846 167.2 391.746 164.225 395.246 158.275V141.825H388.421C382.121 141.825 377.396 142.933 374.246 145.15C371.213 147.367 369.696 150.808 369.696 155.475C369.696 159.208 370.629 162.125 372.496 164.225C374.479 166.208 377.163 167.2 380.546 167.2Z" fill="#2679F3"/>
</svg>
