<svg width="424" height="152" viewBox="0 0 424 152" fill="none" xmlns="http://www.w3.org/2000/svg">
<path d="M120.768 31.3413H183.391V49.3633H141.496V75.2993H179.308V91.9443H141.496V127.931H120.768V31.3413ZM196.659 127.931H217.01V57.707H196.659V127.931ZM196.471 49.2227H217.199V31.4468H196.471V49.2227ZM287.155 60.0625C283.532 57.9062 279.271 56.8276 274.373 56.8276C268.3 56.8276 263.412 58.4824 259.706 61.79C256.628 64.5374 254.217 68.1355 252.454 72.558L252.137 57.707H232.979V127.931H253.331V87.5425C253.331 84.6123 253.874 82.1201 254.963 80.0679C256.052 78.0171 257.56 76.4468 259.486 75.3574C261.412 74.2686 263.632 73.7241 266.144 73.7241C269.913 73.7241 272.865 74.897 275 77.2417C277.136 79.5874 278.204 82.8535 278.204 87.04V127.931H298.555V83.2715C298.555 77.8696 297.56 73.1904 295.571 69.2329C293.582 65.2759 290.776 62.2197 287.155 60.0625ZM347.092 112.636C345.773 112.824 344.737 112.918 343.983 112.918C341.848 112.918 340.309 112.427 339.366 111.442C338.424 110.459 337.953 108.941 337.953 106.889V73.0332H350.893V57.707H337.953V40.999H317.602V57.707H308.118V73.0332H317.602V108.71C317.602 115.285 319.496 120.299 323.287 123.754C327.076 127.208 332.593 128.936 339.837 128.936C341.805 128.936 343.878 128.81 346.056 128.559C348.233 128.308 350.473 127.847 352.777 127.177L350.013 112.102C349.385 112.27 348.411 112.448 347.092 112.636ZM423.769 80.4448V127.931H404.549V118.132H403.921C402.748 120.436 401.209 122.414 399.304 124.068C397.398 125.723 395.137 127 392.521 127.899C389.903 128.799 386.899 129.25 383.507 129.25C379.026 129.25 375.027 128.475 371.51 126.926C367.992 125.377 365.238 123.053 363.25 119.954C361.261 116.855 360.267 113.003 360.267 108.396C360.267 104.46 360.967 101.173 362.371 98.5347C363.773 95.8965 365.7 93.7515 368.149 92.0967C370.599 90.4429 373.404 89.1865 376.566 88.3276C379.728 87.4702 383.067 86.894 386.584 86.6006C390.604 86.2236 393.839 85.8467 396.289 85.4697C398.739 85.0933 400.539 84.5181 401.691 83.7427C402.842 82.9683 403.418 81.8486 403.418 80.3823V80.0679C403.418 78.2681 403.02 76.7393 402.225 75.4829C401.429 74.2266 400.267 73.2637 398.739 72.5933C397.209 71.9243 395.336 71.5884 393.117 71.5884C390.897 71.5884 388.95 71.9243 387.275 72.5933C385.6 73.2637 384.229 74.1636 383.162 75.2944C382.094 76.4248 381.329 77.7441 380.869 79.2515L362.276 76.5508C363.323 72.4893 365.229 68.9927 367.992 66.061C370.756 63.1304 374.273 60.8584 378.545 59.2461C382.816 57.6343 387.715 56.8276 393.243 56.8276C397.304 56.8276 401.178 57.3096 404.863 58.2725C408.547 59.2363 411.804 60.6904 414.63 62.6377C417.457 64.585 419.687 67.0347 421.32 69.9868C422.953 72.939 423.769 76.4248 423.769 80.4448ZM403.544 95.708C402.957 96.085 402.151 96.4307 401.125 96.7446C400.099 97.0586 398.958 97.3413 397.702 97.5928C396.446 97.8438 395.2 98.0635 393.965 98.252C392.729 98.4404 391.588 98.6191 390.542 98.7861C388.322 99.0796 386.396 99.5928 384.763 100.325C383.13 101.058 381.874 102.021 380.995 103.214C380.115 104.408 379.675 105.863 379.675 107.58C379.675 109.255 380.104 110.679 380.963 111.851C381.821 113.023 382.983 113.903 384.449 114.489C385.915 115.076 387.59 115.368 389.474 115.368C392.195 115.368 394.614 114.825 396.729 113.735C398.843 112.647 400.507 111.16 401.722 109.275C402.937 107.391 403.544 105.255 403.544 102.869V95.708Z" fill="#202E47"/>
<path d="M0.868896 91.0112L52.8689 60.989L76.8689 74.8454L24.8689 104.868V151.055L0.868896 137.199V91.0112ZM0.868896 58.6796L24.8689 72.536V44.8232L76.8689 14.801L52.8689 0.94458L0.868896 30.9668V58.6796Z" fill="#2870E9"/>
</svg>
